<svg width="113" height="112" viewBox="0 0 113 112" fill="none" xmlns="http://www.w3.org/2000/svg">
<path d="M36.886 48.8664H39.3003L37.593 47.1592L12.891 22.4586L23.0246 12.325L47.7267 37.0257L49.4337 38.7327V36.3186V1.38574H63.7622V36.3186V38.7329L65.4693 37.0257L90.1688 12.3248L100.308 22.4588L75.6088 47.1593L73.9018 48.8664H76.3159H111.244V63.1963H76.3159H73.9018L75.6088 64.9034L100.308 89.6038L90.1688 99.7364L65.4693 75.0355L63.7622 73.3283V75.7426V110.675H49.4337V75.7426V73.3285L47.7267 75.0355L23.0245 99.7362L12.8911 89.6041L37.593 64.9034L39.3003 63.1963H36.886H1.95312V48.8664H36.886Z" fill="#F8FE5E" stroke="black" stroke-width="2"/>
</svg>
