<svg width="512" height="512" viewBox="0 0 512 512" fill="none" xmlns="http://www.w3.org/2000/svg">
<path d="M201.303 278.865C203.168 245.583 219.466 216.261 244.053 195.476C268.165 175.06 300.62 162.581 336.031 162.581C371.407 162.581 403.862 175.06 427.991 195.476C452.561 216.261 468.858 245.583 470.742 278.829C472.607 313.026 458.862 344.794 434.75 368.343C410.162 392.297 375.191 407.328 336.031 407.328C296.871 407.328 261.829 392.297 237.259 368.343C213.13 344.794 199.419 313.026 201.303 278.865Z" fill="white"/>
<path d="M266.905 281.852C267.863 264.775 276.225 249.73 288.841 239.064C301.213 228.589 317.866 222.186 336.035 222.186C354.187 222.186 370.84 228.589 383.221 239.064C395.828 249.73 404.19 264.775 405.156 281.834C406.114 299.38 399.061 315.681 386.689 327.764C374.073 340.054 356.129 347.767 336.035 347.767C315.942 347.767 297.962 340.054 285.355 327.764C272.974 315.681 265.939 299.38 266.905 281.852Z" fill="#265787"/>
<path d="M156.822 316.358C156.939 323.041 159.07 336.027 162.267 346.168C168.986 367.634 180.383 387.493 196.24 404.994C212.514 422.983 232.553 437.432 255.699 447.691C280.027 458.465 306.388 463.956 333.769 463.911C361.105 463.874 387.465 458.275 411.794 447.42C434.94 437.062 454.961 422.55 471.207 404.552C487.056 386.978 498.435 367.084 505.171 345.618C508.558 334.772 510.698 323.763 511.556 312.719C512.396 301.837 512.044 290.937 510.5 280.046C507.483 258.824 500.141 238.911 488.835 220.759C478.495 204.079 465.166 189.477 449.317 177.186L449.353 177.159L289.41 54.3507C289.266 54.2423 289.148 54.1251 288.995 54.0257C278.501 45.9704 260.855 45.9975 249.314 54.0709C237.646 62.2347 236.31 75.7354 246.695 84.2513L246.65 84.2965L313.36 138.544L110.034 138.761H109.763C92.9565 138.779 76.8006 149.805 73.6037 163.739C70.3166 177.936 81.7313 189.712 99.2057 189.775L99.1787 189.838L202.237 189.64L18.3358 330.798C18.101 330.97 17.8481 331.15 17.6314 331.322C0.283418 344.606 -5.32451 366.695 5.60263 380.675C16.6923 394.889 40.2714 394.916 57.8 380.756L158.167 298.613C158.167 298.613 156.704 309.702 156.822 316.358ZM414.729 353.492C394.049 374.561 365.096 386.509 333.769 386.572C302.396 386.626 273.444 374.787 252.764 353.754C242.658 343.504 235.235 331.71 230.656 319.149C226.168 306.804 224.425 293.7 225.581 280.479C226.674 267.556 230.521 255.229 236.662 244.076C242.694 233.113 251.003 223.207 261.261 214.826C281.364 198.444 306.957 189.576 333.724 189.54C360.518 189.504 386.093 198.291 406.213 214.618C416.454 222.963 424.753 232.833 430.786 243.778C436.954 254.922 440.774 267.204 441.911 280.163C443.049 293.366 441.306 306.452 436.818 318.806C432.231 331.403 424.834 343.197 414.729 353.492Z" fill="#EA7600"/>
</svg>
