<svg width="234" height="234" viewBox="0 0 234 234" fill="none" xmlns="http://www.w3.org/2000/svg">
<g clip-path="url(#clip0_1894_134)">
<path d="M192.562 0H41.4375C18.5522 0 0 19.0279 0 42.5V191.5C0 214.972 18.5522 234 41.4375 234H192.562C215.448 234 234 214.972 234 191.5V42.5C234 19.0279 215.448 0 192.562 0Z" fill="#49021F"/>
<path d="M84.9797 65.6861V165.679C84.9797 166.726 84.5089 167.25 83.5672 167.249H64.5728C63.7344 167.249 63.3159 166.726 63.3174 165.679V65.6861C63.3174 64.8497 63.7882 64.431 64.7299 64.4302H83.7239C83.8945 64.406 84.0683 64.4218 84.2317 64.4763C84.3952 64.5309 84.5437 64.6227 84.6655 64.7445C84.7873 64.8663 84.8791 65.0148 84.9337 65.1783C84.9882 65.3417 85.004 65.5155 84.9797 65.6861Z" fill="#FF3366"/>
<path d="M141.177 168.819C133.952 168.929 126.793 167.427 120.221 164.423C114.098 161.59 108.98 156.964 105.544 151.159C101.985 145.248 100.206 137.844 100.206 128.947C100.147 121.743 101.988 114.65 105.544 108.383C109.206 102 114.592 96.7778 121.084 93.3136C127.885 89.5462 136.1 87.6626 145.729 87.6626C146.251 87.6626 146.932 87.6888 147.77 87.7412C148.606 87.795 149.6 87.8734 150.752 87.9766V57.0525C150.752 56.3215 151.066 55.9537 151.694 55.9537H171.473C171.601 55.9354 171.731 55.9471 171.854 55.988C171.976 56.0288 172.088 56.0977 172.179 56.189C172.271 56.2804 172.34 56.3918 172.381 56.5144C172.421 56.637 172.433 56.7674 172.415 56.8954V149.668C172.415 151.448 172.493 153.384 172.65 155.476C172.807 157.57 172.938 159.454 173.043 161.127C173.062 161.453 172.983 161.777 172.814 162.057C172.646 162.337 172.398 162.56 172.101 162.697C166.998 164.825 161.684 166.403 156.247 167.406C151.275 168.323 146.232 168.796 141.177 168.819ZM150.752 149.354V106.5C149.904 106.27 149.037 106.112 148.162 106.029C147.093 105.921 146.019 105.869 144.944 105.872C141.135 105.834 137.37 106.694 133.956 108.383C130.63 110.036 127.791 112.525 125.715 115.604C123.569 118.744 122.496 122.877 122.497 128.005C122.42 131.427 122.979 134.833 124.145 138.052C125.094 140.645 126.593 143.001 128.541 144.958C130.405 146.759 132.661 148.103 135.133 148.883C137.744 149.728 140.473 150.152 143.217 150.139C144.682 150.139 146.042 150.086 147.299 149.982C148.469 149.894 149.626 149.683 150.752 149.354Z" fill="#FF3366"/>
</g>
<defs>
<clipPath id="clip0_1894_134">
<rect width="234" height="234" fill="white"/>
</clipPath>
</defs>
</svg>
