<svg width="150" height="41" viewBox="0 0 150 41" fill="none" xmlns="http://www.w3.org/2000/svg">
<path d="M0.46875 39.9836V23.2495H6.65139L8.80599 32.5259L9.40308 35.3916H9.44967L10.0586 32.5259L12.1781 23.2495H18.384V39.9836H14.7426V31.5245L15.1055 26.1152H14.9882L13.4074 31.49L10.9487 39.9836H7.93915L5.44535 31.49L3.86454 26.1152H3.74724L4.11015 31.5245V39.9836H0.46875Z" fill="black"/>
<path d="M29.2369 40.214C27.8941 40.214 26.7253 39.9511 25.7298 39.4256C24.7346 38.9001 23.9618 38.1404 23.4113 37.1467C22.8612 36.1532 22.5859 34.9582 22.5859 33.5618V23.2495H26.3446V33.1358C26.3446 33.7803 26.4052 34.3406 26.5263 34.8162C26.647 35.2918 26.8304 35.689 27.0764 36.0073C27.3224 36.3258 27.6269 36.5616 27.9898 36.7153C28.3527 36.8687 28.7762 36.9454 29.2602 36.9454C29.7366 36.9454 30.152 36.8687 30.5073 36.7153C30.8626 36.5616 31.159 36.3278 31.397 36.0132C31.6355 35.6984 31.815 35.3015 31.9357 34.8219C32.0568 34.3423 32.1174 33.7803 32.1174 33.1358V23.2495H35.8761V33.5618C35.8761 34.9351 35.6029 36.1205 35.0562 37.1179C34.51 38.1153 33.7409 38.8807 32.7496 39.4139C31.7583 39.9474 30.5874 40.214 29.2369 40.214Z" fill="black"/>
<path d="M40.082 39.9836V23.2495H43.8289V38.8559L41.5104 36.6115H49.9531V39.9836H40.082Z" fill="black"/>
<path d="M53.4889 39.9836V27.9453C53.4889 27.4851 53.5749 27.1512 53.7468 26.9442C53.9183 26.7369 54.18 26.6065 54.5311 26.5526H49.2852V23.2495H61.393V26.5526H57.2125V39.9836H53.4889Z" fill="black"/>
<path d="M68.4189 23.2495H64.6602V39.9836H68.4189V23.2495Z" fill="black"/>
<path d="M72.75 39.9836V23.2495H78.9326L81.0872 32.5259L81.6843 35.3916H81.7313L82.3403 32.5259L84.4593 23.2495H90.6657V39.9836H87.0238V31.5245L87.3868 26.1152H87.2699L85.6891 31.49L83.23 39.9836H80.2208L77.7266 31.49L76.1458 26.1152H76.0289L76.3918 31.5245V39.9836H72.75Z" fill="black"/>
<path d="M95.0117 39.9836V23.2495H105.445V26.5526H97.5411L98.6768 25.7009V30.5002L97.5411 29.7754H104.66V33.0668H97.658L98.6768 32.3534V37.5208L97.5411 36.6577H105.656V39.9836H95.0117Z" fill="black"/>
<path d="M112.295 39.9836L112.283 36.646H114.192C115.386 36.646 116.362 36.4735 117.119 36.1281C117.876 35.7828 118.436 35.2305 118.799 34.4709C119.162 33.7113 119.344 32.7101 119.344 31.4671C119.344 30.2393 119.168 29.267 118.817 28.5495C118.465 27.8321 117.911 27.32 117.154 27.0132C116.397 26.7061 115.405 26.5526 114.18 26.5526H112.201V23.2495H114.754C116.557 23.2495 118.085 23.5603 119.338 24.1819C120.591 24.8033 121.545 25.7203 122.201 26.9325C122.856 28.1449 123.185 29.6411 123.185 31.421C123.185 33.2165 122.845 34.7529 122.166 36.0303C121.486 37.3078 120.524 38.2861 119.279 38.9651C118.034 39.6443 116.561 39.9836 114.859 39.9836H112.295ZM109.438 39.9836V23.2495H113.161V39.9836H109.438Z" fill="black"/>
<path d="M130.442 23.2495H126.684V39.9836H130.442V23.2495Z" fill="black"/>
<path d="M133.348 39.9836L138.464 23.2495H144.167L149.284 39.9836H145.338L143.804 34.5744L145.865 36.0936H137.469L137.68 33.1934H145.045L143.793 34.5285L142.247 29.0847L141.392 25.6664H141.205L140.362 29.0847L137.294 39.9836H133.348Z" fill="black"/>
<path d="M3.79033 13.5801L3.416 10.396L5.48601 6.85523L9.68483 1.03857H14.0355L8.22304 8.84405L6.73758 9.94769L3.79033 13.5801ZM0.46875 17.7529V1.03857H4.18792V17.7529H0.46875ZM10.1759 17.7529L5.217 9.29234L8.02425 7.17735L14.6086 17.7529H10.1759Z" fill="black"/>
<path d="M22.2699 18.0975C20.8508 18.0975 19.5604 17.7603 18.3985 17.0859C17.2366 16.4117 16.3128 15.4192 15.6267 14.1088C14.9407 12.7981 14.5977 11.1926 14.5977 9.29208C14.5977 7.45278 14.9267 5.89345 15.5857 4.61351C16.2447 3.33358 17.1511 2.36238 18.305 1.69935C19.4588 1.0366 20.7844 0.705078 22.2813 0.705078C23.7473 0.705078 25.059 1.0366 26.217 1.69935C27.3747 2.36238 28.2909 3.33358 28.9655 4.61351C29.6397 5.89345 29.9772 7.45278 29.9772 9.29208C29.9772 11.1926 29.6418 12.7981 28.9714 14.1088C28.3006 15.4192 27.3865 16.4117 26.2289 17.0859C25.0708 17.7603 23.7511 18.0975 22.2699 18.0975ZM22.2699 14.7524C23.0494 14.7524 23.7317 14.5571 24.3166 14.1663C24.9012 13.7753 25.3593 13.1794 25.6909 12.3786C26.0221 11.5777 26.1879 10.5603 26.1879 9.32654C26.1879 8.16167 26.0242 7.18848 25.6964 6.40668C25.369 5.62516 24.9109 5.03703 24.3221 4.64228C23.7338 4.24754 23.0532 4.05016 22.2813 4.05016C21.5487 4.05016 20.8876 4.24754 20.2989 4.64228C19.7105 5.03703 19.2465 5.62516 18.9073 6.40668C18.5681 7.18848 18.3985 8.16167 18.3985 9.32654C18.3985 10.2539 18.4962 11.0585 18.6907 11.7406C18.8857 12.4227 19.1585 12.9861 19.5096 13.4304C19.8607 13.8749 20.2718 14.2065 20.7434 14.4249C21.215 14.6434 21.7238 14.7524 22.2699 14.7524Z" fill="black"/>
<path d="M35.3811 17.7529L35.3693 14.4192H37.2756C38.4684 14.4192 39.4433 14.2469 40.1996 13.902C40.9559 13.5571 41.5154 13.0054 41.8779 12.2467C42.2404 11.4879 42.4219 10.488 42.4219 9.2465C42.4219 8.02011 42.2463 7.0489 41.8953 6.33232C41.5446 5.61574 40.991 5.10422 40.2347 4.79777C39.4784 4.49103 38.4883 4.3378 37.2638 4.3378H35.2872V1.03857H37.8369C39.6383 1.03857 41.1644 1.34901 42.4159 1.9699C43.6671 2.5905 44.6205 3.50644 45.2752 4.71717C45.9304 5.92818 46.2578 7.42257 46.2578 9.20035C46.2578 10.9938 45.9186 12.5284 45.2401 13.8043C44.5621 15.0802 43.6011 16.0574 42.3571 16.7356C41.1136 17.414 39.6421 17.7529 37.9422 17.7529H35.3811ZM32.5273 17.7529V1.03857H36.2465V17.7529H32.5273Z" fill="black"/>
<path d="M48.5391 17.7529V1.03857H58.9598V4.3378H51.0655L52.1999 3.48708V8.2807L51.0655 7.55672H58.1764V10.8443H51.1822L52.1999 10.1317V15.293L51.0655 14.4309H59.1704V17.7529H48.5391Z" fill="black"/>
<path d="M65.4965 1.03857H61.7422V17.7529H65.4965V1.03857Z" fill="black"/>
<path d="M68.6055 17.7529V1.03857H73.3541L78.2547 10.9707L79.5528 14.4653H79.6344L79.1433 10.1775V1.03857H82.7572V17.7529H77.9738L73.0966 7.82102L71.8687 4.63685H71.7519L72.2197 9.60279V17.7529H68.6055Z" fill="black"/>
</svg>
