<svg width="57" height="57" viewBox="0 0 57 57" fill="none" xmlns="http://www.w3.org/2000/svg">
<g clip-path="url(#clip0_379_272)">
<path fill-rule="evenodd" clip-rule="evenodd" d="M11.1572 39.3945C7.02741 36.5756 3.59663 32.8065 1.18066 28.4032C6.57211 18.5774 17.0172 11.9097 29.0071 11.9097C40.9971 11.9097 51.4422 18.5774 56.8336 28.4032C54.4177 32.8065 50.9869 36.5756 46.8571 39.3945L34.0029 26.5405C31.2438 23.7811 26.7705 23.7811 24.0113 26.5405L11.1572 39.3945Z" fill="#3D67FF"/>
<path fill-rule="evenodd" clip-rule="evenodd" d="M18.8916 43.2487L29.0046 27.0033L39.1169 43.2487C35.94 44.3174 32.5397 44.8971 29.0046 44.8971C25.4695 44.8971 22.0685 44.3174 18.8916 43.2487Z" fill="#3D67FF"/>
</g>
<defs>
<clipPath id="clip0_379_272">
<rect width="56" height="56" fill="white" transform="translate(0.833008 0.405518)"/>
</clipPath>
</defs>
</svg>
