<svg width="174" height="57" viewBox="0 0 174 57" fill="none" xmlns="http://www.w3.org/2000/svg">
<path d="M70.1182 40.4055L72.4424 16.343H80.6045L82.8877 40.4055H78.335L77.9932 36.5227H75.0947L74.7939 40.4055H70.1182ZM75.4365 32.6809H77.624L76.5713 20.4446H76.3525L75.4365 32.6809ZM90.0244 40.6243C88.5661 40.6243 87.404 40.3508 86.5381 39.804C85.6722 39.2571 85.0524 38.4687 84.6787 37.4387C84.305 36.4088 84.1182 35.1692 84.1182 33.72V25.4758C84.1182 23.5709 84.665 22.1308 85.7588 21.1555C86.8525 20.1711 88.3564 19.679 90.2705 19.679C94.208 19.679 96.1768 21.6112 96.1768 25.4758V26.9661C96.1768 28.7708 96.1585 29.983 96.1221 30.6028H89.0127V34.5676C89.0127 34.9322 89.0355 35.2922 89.0811 35.6477C89.1266 35.9941 89.2269 36.2812 89.3818 36.509C89.5459 36.7369 89.8057 36.8508 90.1611 36.8508C90.6715 36.8508 90.9906 36.6321 91.1182 36.1946C91.2458 35.748 91.3096 35.1692 91.3096 34.4583V32.4895H96.1768V33.6516C96.1768 35.1829 95.9854 36.468 95.6025 37.5071C95.2288 38.537 94.5908 39.3163 93.6885 39.845C92.7952 40.3645 91.5739 40.6243 90.0244 40.6243ZM88.9854 28.1692H91.3096V25.4075C91.3096 24.6692 91.2184 24.1405 91.0361 23.8215C90.8538 23.4934 90.5804 23.3293 90.2158 23.3293C89.8239 23.3293 89.5186 23.4843 89.2998 23.7942C89.0902 24.1041 88.9854 24.6418 88.9854 25.4075V28.1692ZM103.915 40.6243C99.8317 40.6243 97.79 38.5051 97.79 34.2668V26.0364C97.79 24.1041 98.3324 22.5637 99.417 21.4153C100.502 20.2577 102.001 19.679 103.915 19.679C105.838 19.679 107.342 20.2577 108.427 21.4153C109.511 22.5637 110.054 24.1041 110.054 26.0364V34.2668C110.054 38.5051 108.007 40.6243 103.915 40.6243ZM103.915 36.8508C104.325 36.8508 104.617 36.705 104.79 36.4133C104.972 36.1125 105.063 35.7343 105.063 35.2786V25.2571C105.063 24.0631 104.681 23.4661 103.915 23.4661C103.149 23.4661 102.767 24.0631 102.767 25.2571V35.2786C102.767 35.7343 102.853 36.1125 103.026 36.4133C103.209 36.705 103.505 36.8508 103.915 36.8508ZM118.038 40.6243C115.741 40.6243 114.11 40.0364 113.144 38.8606C112.187 37.6848 111.708 35.9576 111.708 33.679V27.3625C111.708 25.649 111.89 24.2226 112.255 23.0833C112.619 21.9439 113.257 21.0917 114.169 20.5266C115.08 19.9615 116.347 19.679 117.97 19.679C119.1 19.679 120.112 19.8795 121.005 20.2805C121.907 20.6816 122.618 21.2694 123.138 22.0442C123.657 22.8189 123.917 23.7668 123.917 24.8879V28.0188H118.927V25.1477C118.927 24.6737 118.858 24.2773 118.722 23.9583C118.585 23.6301 118.289 23.4661 117.833 23.4661C117.031 23.4661 116.63 24.0357 116.63 25.175V35.1145C116.63 35.5338 116.721 35.9211 116.903 36.2766C117.086 36.623 117.386 36.7961 117.806 36.7961C118.234 36.7961 118.53 36.6275 118.694 36.2903C118.868 35.9439 118.954 35.5429 118.954 35.0872V31.6418H123.917V35.2239C123.917 36.3541 123.662 37.3248 123.151 38.136C122.65 38.9381 121.957 39.5533 121.073 39.9817C120.189 40.4101 119.177 40.6243 118.038 40.6243ZM129.577 40.6243C128.483 40.6243 127.645 40.3964 127.062 39.9407C126.487 39.4849 126.095 38.8515 125.886 38.0403C125.676 37.22 125.571 36.2629 125.571 35.1692V19.8977H130.493V34.595C130.493 35.4153 130.557 35.9895 130.685 36.3176C130.812 36.6366 131.113 36.7961 131.587 36.7961C132.097 36.7961 132.416 36.5683 132.544 36.1125C132.681 35.6568 132.749 35.0689 132.749 34.3489V19.8977H137.63V40.4055H132.735V38.218C132.425 39.0019 132.052 39.5989 131.614 40.009C131.186 40.4192 130.507 40.6243 129.577 40.6243ZM139.599 40.4055V16.343H144.575V40.4055H139.599ZM150.495 40.6243C149.401 40.6243 148.563 40.3964 147.979 39.9407C147.405 39.4849 147.013 38.8515 146.804 38.0403C146.594 37.22 146.489 36.2629 146.489 35.1692V19.8977H151.411V34.595C151.411 35.4153 151.475 35.9895 151.603 36.3176C151.73 36.6366 152.031 36.7961 152.505 36.7961C153.015 36.7961 153.334 36.5683 153.462 36.1125C153.599 35.6568 153.667 35.0689 153.667 34.3489V19.8977H158.548V40.4055H153.653V38.218C153.343 39.0019 152.97 39.5989 152.532 40.009C152.104 40.4192 151.425 40.6243 150.495 40.6243ZM166.136 40.6243C162.089 40.6243 160.065 38.5735 160.065 34.4719V32.845H164.987V35.2512C164.987 35.7161 165.078 36.0806 165.261 36.345C165.443 36.6093 165.735 36.7415 166.136 36.7415C166.847 36.7415 167.202 36.2083 167.202 35.1418C167.202 34.2486 167.015 33.5833 166.642 33.1458C166.268 32.6991 165.812 32.2708 165.274 31.8606L162.663 29.8508C161.843 29.2128 161.218 28.5383 160.79 27.8274C160.362 27.1165 160.147 26.1275 160.147 24.8606C160.147 23.6848 160.425 22.7141 160.981 21.9485C161.547 21.1829 162.289 20.6132 163.21 20.2395C164.14 19.8658 165.142 19.679 166.218 19.679C170.192 19.679 172.179 21.6614 172.179 25.6262V26.009H167.12V25.2297C167.12 24.8196 167.047 24.4231 166.901 24.0403C166.765 23.6575 166.491 23.4661 166.081 23.4661C165.388 23.4661 165.042 23.8306 165.042 24.5598C165.042 25.2981 165.334 25.8769 165.917 26.2961L168.952 28.511C169.9 29.1946 170.693 30.0058 171.331 30.9446C171.978 31.8834 172.302 33.1321 172.302 34.6907C172.302 36.623 171.75 38.095 170.647 39.1067C169.554 40.1184 168.05 40.6243 166.136 40.6243Z" fill="#3D67FF"/>
<g clip-path="url(#clip0_379_270)">
<path fill-rule="evenodd" clip-rule="evenodd" d="M11.1572 39.3945C7.02741 36.5756 3.59663 32.8065 1.18066 28.4032C6.57211 18.5774 17.0172 11.9097 29.0071 11.9097C40.9971 11.9097 51.4422 18.5774 56.8336 28.4032C54.4177 32.8065 50.9869 36.5756 46.8571 39.3945L34.0029 26.5405C31.2438 23.7811 26.7705 23.7811 24.0113 26.5405L11.1572 39.3945Z" fill="#3D67FF"/>
<path fill-rule="evenodd" clip-rule="evenodd" d="M18.8916 43.2487L29.0046 27.0033L39.1169 43.2487C35.94 44.3174 32.5397 44.8971 29.0046 44.8971C25.4695 44.8971 22.0685 44.3174 18.8916 43.2487Z" fill="#3D67FF"/>
</g>
<defs>
<clipPath id="clip0_379_270">
<rect width="56" height="56" fill="white" transform="translate(0.833008 0.405518)"/>
</clipPath>
</defs>
</svg>
