<svg width="114" height="24" viewBox="0 0 114 24" fill="none" xmlns="http://www.w3.org/2000/svg">
<path d="M90.9062 22.9921V1.00806H106.746C108.005 1.00806 109.093 1.22139 110.01 1.64806C110.949 2.07472 111.664 2.68272 112.154 3.47206C112.666 4.24006 112.922 5.17872 112.922 6.28806C112.922 7.12006 112.762 7.88806 112.442 8.59206C112.122 9.29606 111.674 9.89339 111.098 10.3841C110.544 10.8747 109.882 11.2374 109.114 11.4721V11.6001C109.989 11.7707 110.757 12.0907 111.418 12.5601C112.101 13.0294 112.634 13.6481 113.018 14.4161C113.402 15.1841 113.594 16.0907 113.594 17.1361C113.594 18.5014 113.285 19.6214 112.666 20.4961C112.048 21.3494 111.226 21.9787 110.202 22.3841C109.178 22.7894 108.037 22.9921 106.778 22.9921H90.9062ZM94.3622 20.0481H106.266C107.376 20.0481 108.272 19.7814 108.954 19.2481C109.658 18.7147 110.01 17.8721 110.01 16.7201C110.01 15.9521 109.85 15.3121 109.53 14.8001C109.232 14.2667 108.784 13.8721 108.186 13.6161C107.61 13.3601 106.938 13.2321 106.17 13.2321H94.3622V20.0481ZM94.3622 10.3521H105.466C106.17 10.3521 106.81 10.2241 107.386 9.96806C107.984 9.69072 108.464 9.30672 108.826 8.81606C109.189 8.30406 109.37 7.68539 109.37 6.96006C109.37 5.91472 109.061 5.15739 108.442 4.68806C107.824 4.21872 107.002 3.98406 105.978 3.98406H94.3622V10.3521Z" fill="black"/>
<path d="M71.0521 23.376C68.1934 23.376 65.7187 22.9387 63.6281 22.064C61.5587 21.1894 59.9587 19.9094 58.8281 18.224C57.7187 16.5387 57.1641 14.4694 57.1641 12.016C57.1641 9.54136 57.7187 7.46136 58.8281 5.77602C59.9587 4.09069 61.5587 2.81069 63.6281 1.93602C65.7187 1.06136 68.1934 0.624023 71.0521 0.624023C73.9321 0.624023 76.4067 1.06136 78.4761 1.93602C80.5454 2.81069 82.1347 4.09069 83.244 5.77602C84.3747 7.46136 84.9401 9.54136 84.9401 12.016C84.9401 14.4694 84.3747 16.5387 83.244 18.224C82.1347 19.9094 80.5454 21.1894 78.4761 22.064C76.4067 22.9387 73.9321 23.376 71.0521 23.376ZM71.0521 20.432C72.5241 20.432 73.8787 20.272 75.1161 19.952C76.3747 19.632 77.4734 19.152 78.412 18.512C79.3507 17.8507 80.0761 17.008 80.5881 15.984C81.1214 14.96 81.3881 13.744 81.3881 12.336V11.632C81.3881 10.224 81.1214 9.01869 80.5881 8.01602C80.0761 6.99202 79.3507 6.16002 78.412 5.52003C77.4734 4.85869 76.3747 4.37869 75.1161 4.08002C73.8787 3.76003 72.5241 3.60003 71.0521 3.60003C69.6014 3.60003 68.2467 3.76003 66.9881 4.08002C65.7294 4.37869 64.6307 4.85869 63.692 5.52003C62.7534 6.16002 62.0281 6.99202 61.5161 8.01602C61.0041 9.01869 60.748 10.224 60.748 11.632V12.336C60.748 13.744 61.0041 14.96 61.5161 15.984C62.0281 17.008 62.7534 17.8507 63.692 18.512C64.652 19.152 65.7507 19.632 66.9881 19.952C68.2467 20.272 69.6014 20.432 71.0521 20.432Z" fill="black"/>
<path d="M27.8438 22.9921V1.00806H31.2038L44.9958 14.9921C45.2304 15.2054 45.5078 15.4934 45.8278 15.8561C46.1478 16.1974 46.4678 16.5387 46.7878 16.8801C47.1291 17.2214 47.4171 17.5307 47.6518 17.8081H47.9077C47.8864 17.4027 47.8651 16.9014 47.8438 16.3041C47.8438 15.6854 47.8438 15.1414 47.8438 14.6721V1.00806H51.2038V22.9921H48.0038L34.1478 8.88006C33.6571 8.38939 33.1451 7.86672 32.6118 7.31206C32.0998 6.73606 31.6944 6.27739 31.3958 5.93606H31.1718C31.1718 6.29872 31.1718 6.82139 31.1718 7.50406C31.1931 8.16539 31.2038 8.83739 31.2038 9.52006V22.9921H27.8438Z" fill="black"/>
<path d="M0 22.9921V1.00806H3.45601V13.5841L18.272 1.00806H22.912L12.576 9.90406L23.264 22.9921H18.816L9.98401 11.9841L3.45601 17.2321V22.9921H0Z" fill="black"/>
</svg>
