<svg width="94" height="41" viewBox="0 0 94 41" fill="none" xmlns="http://www.w3.org/2000/svg">
<g clip-path="url(#clip0_737_161)">
<path d="M16.228 25.2123L46.4407 25.6969L50.514 25.6576L50.628 25.3709L46.3833 25.2256L16.166 24.7183L16.228 25.2123Z" fill="black"/>
<path d="M79.8406 36.2809C74.9646 36.2269 71.056 32.2309 71.11 27.3549C71.164 22.4795 75.1606 18.5709 80.036 18.6249C84.912 18.6789 88.8206 22.6749 88.7666 27.5502C88.7126 32.4262 84.716 36.3349 79.8406 36.2809ZM80.0833 14.3849C72.8653 14.3049 66.95 20.0909 66.87 27.3082C66.79 34.5255 72.5759 40.4409 79.7933 40.5209C87.0106 40.6009 92.9266 34.8149 93.0066 27.5975C93.0866 20.3802 87.3006 14.4642 80.0833 14.3849Z" fill="#333334"/>
<path d="M16.2562 36.1602C11.4349 36.1069 7.57024 32.1556 7.62357 27.3349C7.6769 22.5142 11.6282 18.6496 16.4496 18.7029C21.2702 18.7562 25.1349 22.7076 25.0816 27.5283C25.0282 32.3489 21.0769 36.2136 16.2562 36.1602ZM16.4982 14.2716C9.23022 14.1909 3.2729 20.0176 3.19223 27.2862C3.11157 34.5542 8.9389 40.5116 16.2069 40.5922C23.4749 40.6729 29.4322 34.8456 29.5129 27.5776C29.5936 20.3089 23.7662 14.3516 16.4982 14.2716Z" fill="#333334"/>
<path d="M5.16799 28.343C5.23799 22.1777 10.3093 17.217 16.4753 17.285C21.3473 17.339 25.4673 20.517 26.9487 24.891C27.692 27.0864 29.682 28.6144 32 28.6404C32.094 20.0124 25.1527 12.9157 16.5247 12.8204C7.89666 12.725 0.458651 19.1797 0.333984 30.453L5.16799 28.343Z" fill="black"/>
<path d="M14.5673 12.9175C6.80199 13.7461 0.449318 20.0435 0.333984 30.4528C1.82465 29.6355 2.79532 28.1448 3.03532 26.4615C3.96665 19.9242 8.09666 15.7648 13.2353 14.5828C14.0167 14.4028 14.5767 13.7195 14.5673 12.9175Z" fill="#4F5E6D"/>
<path d="M91.4384 19.475C87.993 14.599 81.637 12.3144 75.6857 14.2924C68.4064 16.7124 64.0244 24.293 67.1857 33.805L70.6377 30.6304C68.9097 25.4277 71.7357 19.789 76.9377 18.0597C80.0677 17.019 83.3537 17.6304 85.853 19.413L91.4384 19.475Z" fill="black"/>
<path d="M76.1384 15.671C80.2717 14.297 84.631 15.333 87.6984 18.0064C88.7424 18.9164 90.0537 19.4597 91.4384 19.475C87.993 14.599 81.637 12.3144 75.6857 14.2924C68.4064 16.7124 64.0244 24.293 67.1857 33.805C68.153 32.9157 68.5937 31.5824 68.3257 30.2964C66.835 23.141 70.4504 17.5617 76.1384 15.671Z" fill="#4F5E6D"/>
<path d="M79.9757 31.7255C77.6164 31.6995 75.7251 29.7655 75.7511 27.4062C75.7771 25.0468 77.7111 23.1555 80.0704 23.1815C82.4297 23.2082 84.3211 25.1415 84.2951 27.5008C84.2691 29.8602 82.3351 31.7515 79.9757 31.7255ZM80.0984 20.6262C76.3284 20.5848 73.2377 23.6075 73.1957 27.3782C73.1544 31.1488 76.1771 34.2395 79.9477 34.2808C83.7184 34.3228 86.8084 31.2995 86.8504 27.5295C86.8924 23.7588 83.8691 20.6682 80.0984 20.6262Z" fill="#4F5E6D"/>
<path d="M16.311 31.0569C14.309 31.0349 12.7037 29.3936 12.7257 27.3916C12.7483 25.3896 14.389 23.7842 16.3917 23.8062C18.3937 23.8282 19.999 25.4696 19.977 27.4716C19.955 29.4742 18.3137 31.0796 16.311 31.0569ZM16.4157 21.6376C13.2157 21.6022 10.5923 24.1676 10.557 27.3676C10.5217 30.5676 13.087 33.1903 16.287 33.2263C19.487 33.2616 22.1103 30.6956 22.1457 27.4956C22.181 24.2956 19.6157 21.6729 16.4157 21.6376Z" fill="#4F5E6D"/>
<path d="M13.5197 27.4003C13.5024 28.971 14.761 30.2576 16.331 30.275C17.9017 30.2923 19.1884 29.0336 19.2064 27.4636C19.2237 25.893 17.9644 24.6063 16.3944 24.5883C14.8237 24.571 13.537 25.8303 13.5197 27.4003Z" fill="black"/>
<path d="M15.8457 30.2289L46.0557 30.8622L50.145 30.1602L50.3017 27.9935L46.069 27.3209L15.8577 26.5195L15.8457 30.2289Z" fill="black"/>
<path d="M77.2014 27.3484C77.2194 28.919 78.5074 30.177 80.0774 30.159C81.6474 30.141 82.906 28.853 82.888 27.283C82.8694 25.7124 81.582 24.4544 80.0114 24.4724C78.4414 24.4904 77.1827 25.7784 77.2014 27.3484Z" fill="black"/>
<path d="M75.3458 23.9517L76.9545 22.511L64.3645 8.45435L62.7559 9.89502L75.3458 23.9517Z" fill="#4F5E6D"/>
<path d="M62.2103 12.7563C60.4203 15.1663 58.8689 17.9943 57.6576 20.7803L47.7896 20.671L47.8963 11.043C50.0476 10.351 52.1769 9.83033 54.0423 9.66699C56.2389 9.47566 58.4803 9.38633 60.5249 9.40833C60.5443 9.40899 60.5636 9.409 60.5829 9.409C62.2909 9.43033 63.2296 11.385 62.2103 12.7563ZM53.9263 8.33899C45.9569 9.03499 30.5509 18.185 30.5509 18.185L24.7383 15.0777C29.6816 20.0757 33.6356 25.9117 30.4923 35.0063L52.3603 35.309C54.3736 35.331 56.0509 33.797 56.2289 31.7917C56.7383 26.0457 61.4889 13.875 67.0669 9.55101C68.6063 8.35767 61.7223 7.65833 53.9263 8.33899Z" fill="black"/>
<path d="M33.8626 29.843C33.5846 29.587 33.3432 29.279 33.1666 28.9056C32.9299 28.4036 33.1446 27.8043 33.6466 27.5676C34.1479 27.3303 34.7486 27.545 34.9846 28.047C35.2573 28.6223 36.1612 28.9083 36.9886 29.1303L42.1826 30.5256C42.7439 30.6763 43.2739 30.819 43.7806 30.8336C43.9919 30.8383 49.4959 30.3996 49.6839 30.393C50.4639 30.367 51.3479 30.337 51.7853 30.0103C52.2606 29.6556 52.5132 28.9443 52.7706 28.1203L54.4546 22.7343C54.6199 22.205 55.1839 21.9096 55.7139 22.075C56.2426 22.241 56.5386 22.805 56.3732 23.3336L54.6899 28.721C54.4086 29.619 54.0239 30.8483 52.9879 31.6216C52.0452 32.325 50.7739 32.3683 49.7526 32.403C49.5792 32.4083 44.0292 32.8516 43.7239 32.843C42.9812 32.8223 42.2799 32.6336 41.6612 32.4676L36.4673 31.0716C35.7879 30.8896 34.6732 30.5903 33.8626 29.843Z" fill="#39414C"/>
<path d="M32.949 25.7015C32.999 25.5508 33.0843 25.4102 33.2063 25.2928C33.6063 24.9075 34.243 24.9202 34.6283 25.3195C34.9923 25.6982 35.6376 25.9155 36.2063 26.1082C37.1803 26.4368 42.1116 27.7888 43.5156 27.8628C44.0903 27.8715 46.399 26.7775 47.5083 26.2522C49.275 25.4142 49.7709 25.2022 50.2069 25.2028C51.2803 25.2062 52.2376 25.7275 52.7056 26.5635C52.9763 27.0475 52.8043 27.6602 52.3203 27.9315C51.835 28.2028 51.2229 28.0302 50.9516 27.5462C50.8523 27.3688 50.575 27.2362 50.275 27.2162C49.971 27.3095 49.0876 27.7282 48.3696 28.0688C46.003 29.1902 44.3796 29.9215 43.4103 29.8708C41.6036 29.7755 36.3896 28.2915 35.5636 28.0135C34.8149 27.7602 33.8836 27.4462 33.1796 26.7142C32.9116 26.4362 32.8363 26.0442 32.949 25.7015Z" fill="#4F5E6D"/>
<path d="M79.4352 28.9423L81.4492 27.1383L70.5772 14.999L68.5625 16.8037L79.4352 28.9423Z" fill="black"/>
<path d="M65.1066 10.5257C67.3246 10.8917 69.314 11.079 71.392 10.9177C71.772 10.8884 72.0966 10.669 72.184 10.3797C72.718 8.60104 72.6173 6.74838 72.2986 4.84305C72.2426 4.50571 71.878 4.24238 71.4426 4.21971C68.8726 4.08571 66.9913 4.16438 65.4813 4.53571C64.7393 4.56171 64.1406 5.05372 64.0993 5.67172L64.0646 9.38372C64.028 9.92638 64.4673 10.4204 65.1066 10.5257Z" fill="black"/>
<path d="M72.553 7.33371C72.5337 6.51437 72.4397 5.68438 72.299 4.84305C72.243 4.50571 71.8784 4.24238 71.443 4.21971C68.873 4.08571 66.9917 4.16438 65.4817 4.53571C64.7397 4.56171 64.141 5.05372 64.0997 5.67172C64.0917 6.53839 64.7863 7.24771 65.653 7.25705L72.553 7.33371Z" fill="#4F5E6D"/>
<path d="M72.2995 4.84281C72.2435 4.50548 71.8788 4.24215 71.4435 4.21948C71.0961 4.20148 70.7628 4.18816 70.4395 4.17749L70.6914 10.9421C70.9254 10.9328 71.1574 10.9361 71.3928 10.9175C71.7728 10.8881 72.0975 10.6688 72.1848 10.3795C72.7188 8.60081 72.6181 6.74815 72.2995 4.84281Z" fill="#A6B0A7"/>
<path d="M72.5534 7.33348C72.5341 6.51414 72.4401 5.68415 72.2995 4.84281C72.2435 4.50548 71.8788 4.24215 71.4435 4.21948C71.0961 4.20148 70.7628 4.18816 70.4395 4.17749L70.5561 7.31148L72.5534 7.33348Z" fill="#B8FFFF"/>
<path d="M53.8047 23.5697C53.8047 22.669 54.5347 21.9397 55.4353 21.9397C56.3353 21.9397 57.0653 22.669 57.0653 23.5697C57.0653 24.4704 56.3353 25.1997 55.4353 25.1997C54.5347 25.1997 53.8047 24.4704 53.8047 23.5697Z" fill="#4F5E6D"/>
<path d="M54.3633 23.5696C54.3633 22.9783 54.8426 22.4983 55.4346 22.4983C56.0259 22.4983 56.5053 22.9783 56.5053 23.5696C56.5053 24.161 56.0259 24.641 55.4346 24.641C54.8426 24.641 54.3633 24.161 54.3633 23.5696Z" fill="black"/>
<path d="M40.5673 11.4542L49.3619 6.0495C52.1306 4.34817 55.5373 4.0455 58.5619 5.23283L61.1899 6.26483C62.0659 6.60817 62.486 7.60684 62.12 8.47351L61.0306 11.0542C60.6873 11.8675 59.8539 12.3635 58.9753 12.2775L52.7773 11.6702L41.7539 14.3148C40.9399 14.5102 40.1153 14.0308 39.8826 13.2268C39.6859 12.5488 39.9659 11.8235 40.5673 11.4542Z" fill="#4F5E6D"/>
<path d="M53.2649 10.5888L61.2496 10.5268C61.2529 10.5182 61.2555 10.5115 61.2589 10.5035C61.7329 9.3575 60.8996 8.09351 59.6602 8.07951L55.3416 8.03149C53.7729 8.01416 52.2156 8.30484 50.7582 8.88617L40.7196 12.8928C40.0962 13.1415 39.9789 14.0368 40.5682 14.3582C40.7489 14.4568 53.2649 10.5888 53.2649 10.5888Z" fill="black"/>
<path d="M33.8457 15.0616C32.6224 15.885 31.347 16.8703 29.873 16.8203C28.7884 16.7836 27.8164 16.167 26.9544 15.5077C22.5997 12.179 22.2224 12.7943 20.8457 14.3603C26.7357 16.555 28.887 21.177 29.4437 21.5823C30.0004 21.9876 30.761 22.1983 31.3857 21.909C31.821 21.7076 32.121 21.3043 32.411 20.9236C34.303 18.439 36.5684 16.2403 39.1077 14.4236C39.3937 14.219 39.707 13.9817 39.763 13.6343C39.8337 13.189 39.4104 12.7863 38.965 12.7143C38.5204 12.643 38.0744 12.811 37.6597 12.9877C36.3264 13.5563 35.0477 14.2516 33.8457 15.0616Z" fill="#573332"/>
<path d="M15.989 11.9589L20.7037 12.0362C21.3237 12.0462 21.8217 12.5522 21.8217 13.1729L21.8983 14.7942C19.3756 13.8602 16.6303 13.7822 14.8477 14.1382L14.959 12.8862C15.0057 12.3549 15.4556 11.9502 15.989 11.9589Z" fill="#573332"/>
<path d="M56.2995 20.1982L54.1055 18.2202L56.7901 13.6875L59.2488 15.1442L56.2995 20.1982Z" fill="black"/>
<path d="M60.2311 16.0623L55.6124 13.3256C55.4751 13.2443 55.4298 13.0676 55.5111 12.9303C55.5924 12.793 55.7691 12.7476 55.9064 12.829L60.5258 15.5656C60.6624 15.6463 60.7078 15.8236 60.6271 15.961C60.5458 16.0976 60.3684 16.143 60.2311 16.0623Z" fill="black"/>
<path d="M59.5446 16.7962L55.298 14.2802C55.1607 14.1989 55.1153 14.0222 55.1966 13.8849C55.278 13.7476 55.4546 13.7022 55.592 13.7836L59.8386 16.2996C59.976 16.3802 60.0213 16.5576 59.94 16.6949C59.8586 16.8316 59.6813 16.8769 59.5446 16.7962Z" fill="black"/>
<path d="M58.8997 17.4869L55.0031 15.1789C54.8657 15.0976 54.8204 14.9202 54.9017 14.7836C54.9831 14.6462 55.1604 14.6009 55.2971 14.6822L59.1937 16.9902C59.3311 17.0716 59.3764 17.2489 59.2951 17.3856C59.2137 17.5229 59.0371 17.5682 58.8997 17.4869Z" fill="black"/>
<path d="M58.2248 18.1609L54.7374 16.0943C54.6001 16.0136 54.5548 15.8362 54.6361 15.6989C54.7174 15.5622 54.8941 15.5169 55.0314 15.5976L58.5194 17.6642C58.6561 17.7449 58.7014 17.9223 58.6208 18.0596C58.5394 18.1963 58.3621 18.2416 58.2248 18.1609Z" fill="black"/>
<path d="M57.569 18.8463L54.4484 16.9983C54.311 16.9169 54.2657 16.7396 54.347 16.6023C54.4284 16.4656 54.6057 16.4203 54.7424 16.5016L57.863 18.3496C58.0004 18.4309 58.0457 18.6083 57.9644 18.7456C57.8831 18.8823 57.7057 18.9276 57.569 18.8463Z" fill="black"/>
<path d="M50.8636 18.5696L53.6883 18.139L52.895 12.9316L50.0703 13.3617L50.8636 18.5696Z" fill="black"/>
<path d="M48.8144 13.8448L54.1224 13.0362C54.2798 13.0122 54.3884 12.8648 54.3644 12.7075C54.3404 12.5502 54.1931 12.4415 54.0351 12.4655L48.7277 13.2742C48.5704 13.2982 48.4617 13.4455 48.4857 13.6028C48.5097 13.7608 48.6571 13.8688 48.8144 13.8448Z" fill="black"/>
<path d="M49.1777 14.7822L54.057 14.0395C54.215 14.0155 54.3231 13.8682 54.2991 13.7102C54.2751 13.5528 54.1277 13.4442 53.9704 13.4682L49.091 14.2115C48.933 14.2355 48.825 14.3828 48.849 14.5408C48.873 14.6982 49.0204 14.8062 49.1777 14.7822Z" fill="black"/>
<path d="M49.5175 15.6649L53.9949 14.9829C54.1529 14.9589 54.2609 14.8116 54.2369 14.6543C54.2129 14.4969 54.0655 14.3883 53.9082 14.4123L49.4309 15.0943C49.2735 15.1183 49.1649 15.2656 49.1889 15.4229C49.2129 15.5809 49.3602 15.6889 49.5175 15.6649Z" fill="black"/>
<path d="M49.8906 16.5423L53.8986 15.9323C54.0559 15.9083 54.1646 15.761 54.1406 15.603C54.1166 15.4457 53.9692 15.337 53.8112 15.361L49.8039 15.9716C49.6466 15.9956 49.5379 16.143 49.5619 16.3003C49.5859 16.4583 49.7332 16.5663 49.8906 16.5423Z" fill="black"/>
<path d="M50.2422 17.4236L53.8282 16.877C53.9855 16.853 54.0941 16.7063 54.0701 16.5483C54.0461 16.391 53.8988 16.2823 53.7408 16.3063L50.1555 16.853C49.9981 16.877 49.8895 17.0236 49.9135 17.1816C49.9375 17.339 50.0848 17.4476 50.2422 17.4236Z" fill="black"/>
<path d="M56.3061 20.5523C56.0094 22.0783 54.5327 23.075 53.0067 22.779C51.4814 22.4823 50.4841 21.005 50.7807 19.4797C51.0767 17.9537 52.5541 16.957 54.0801 17.2537C55.6054 17.5497 56.6021 19.027 56.3061 20.5523Z" fill="black"/>
<path d="M55.8371 20.4617C55.5904 21.729 54.3637 22.5577 53.0957 22.311C51.8284 22.065 51.0004 20.8377 51.2464 19.5703C51.4924 18.303 52.7197 17.475 53.9877 17.721C55.2551 17.967 56.0831 19.1943 55.8371 20.4617Z" fill="black"/>
<path d="M54.1017 19.1983C54.0383 19.5269 53.7197 19.7416 53.391 19.6776C53.0624 19.6143 52.8477 19.2956 52.9117 18.9669C52.9757 18.6383 53.2937 18.4236 53.6223 18.4876C53.951 18.5516 54.1657 18.8696 54.1017 19.1983Z" fill="black"/>
<path d="M52.2803 20.7408C50.6243 20.7735 49.0469 20.4648 47.5469 19.8222C47.1949 19.7535 46.9649 19.4128 47.0336 19.0608L47.1736 18.3382C47.2423 17.9862 47.5829 17.7562 47.9349 17.8242L52.6683 18.7435C53.0203 18.8122 53.2503 19.1528 53.1823 19.5048L53.0416 20.2275C52.9736 20.5795 52.6323 20.8095 52.2803 20.7408Z" fill="black"/>
<path d="M48.4634 18.9635C48.4201 19.1862 48.2041 19.3322 47.9814 19.2889C47.7581 19.2455 47.6127 19.0295 47.6561 18.8069C47.6994 18.5835 47.9147 18.4382 48.1381 18.4815C48.3607 18.5249 48.5067 18.7402 48.4634 18.9635Z" fill="black"/>
<path d="M52.6079 19.7682C52.5646 19.9915 52.3486 20.1369 52.1259 20.0935C51.9026 20.0502 51.7573 19.8342 51.8006 19.6115C51.8439 19.3882 52.0593 19.2429 52.2826 19.2862C52.5053 19.3295 52.6513 19.5455 52.6079 19.7682Z" fill="black"/>
<path d="M51.0359 20.0141L48.9746 19.6135L49.1319 18.8062L51.1933 19.2068L51.0359 20.0141Z" fill="black"/>
<path d="M53.887 21.9503L51.4863 19.785L54.4243 14.825L57.115 16.419L53.887 21.9503Z" fill="#4F5E6D"/>
<path d="M58.1908 17.4229L53.1355 14.4282C52.9855 14.3395 52.9355 14.1455 53.0248 13.9955C53.1135 13.8455 53.3075 13.7962 53.4575 13.8849L58.5128 16.8795C58.6628 16.9682 58.7122 17.1622 58.6235 17.3122C58.5342 17.4622 58.3408 17.5115 58.1908 17.4229Z" fill="#A6B0A7"/>
<path d="M57.4394 18.2262L52.7921 15.4729C52.6414 15.3842 52.5921 15.1902 52.6807 15.0402C52.7701 14.8902 52.9634 14.8409 53.1141 14.9296L57.7614 17.6829C57.9114 17.7716 57.9607 17.9655 57.8721 18.1155C57.7834 18.2655 57.5894 18.3149 57.4394 18.2262Z" fill="#A6B0A7"/>
<path d="M56.7322 18.983L52.4675 16.4563C52.3175 16.3677 52.2675 16.1737 52.3568 16.0237C52.4455 15.8737 52.6395 15.8237 52.7895 15.913L57.0542 18.439C57.2042 18.5283 57.2535 18.7217 57.1649 18.8717C57.0762 19.0217 56.8822 19.0717 56.7322 18.983Z" fill="#A6B0A7"/>
<path d="M55.9932 19.7196L52.1765 17.4589C52.0265 17.3696 51.9765 17.1762 52.0658 17.0256C52.1545 16.8756 52.3485 16.8262 52.4985 16.9149L56.3152 19.1762C56.4658 19.2649 56.5152 19.4589 56.4265 19.6089C56.3372 19.7589 56.1438 19.8089 55.9932 19.7196Z" fill="#A6B0A7"/>
<path d="M55.2771 20.4703L51.8618 18.4477C51.7118 18.3583 51.6624 18.165 51.7511 18.015C51.8404 17.8643 52.0338 17.815 52.1838 17.9036L55.5991 19.927C55.7491 20.0157 55.7991 20.2096 55.7097 20.3596C55.6211 20.5096 55.4271 20.5597 55.2771 20.4703Z" fill="#A6B0A7"/>
<path d="M47.9383 20.1668L51.0303 19.6962L50.1623 13.9968L47.0703 14.4675L47.9383 20.1668Z" fill="#4F5E6D"/>
<path d="M45.6976 14.9969L51.5062 14.1116C51.6789 14.0856 51.7976 13.9243 51.7709 13.7523C51.7449 13.5796 51.5836 13.461 51.4109 13.4876L45.6029 14.3723C45.4302 14.3983 45.3116 14.5596 45.3376 14.7316C45.3642 14.9043 45.5256 15.0229 45.6976 14.9969Z" fill="#A6B0A7"/>
<path d="M46.0921 16.023L51.4321 15.2097C51.6047 15.183 51.7234 15.0224 51.6968 14.8497C51.6708 14.677 51.5094 14.5584 51.3374 14.585L45.9967 15.3984C45.8247 15.4244 45.7061 15.5857 45.7321 15.7584C45.7588 15.9304 45.9194 16.049 46.0921 16.023Z" fill="#A6B0A7"/>
<path d="M46.4646 16.9883L51.3653 16.2423C51.5373 16.2163 51.656 16.0549 51.63 15.8823C51.6033 15.7096 51.4426 15.5916 51.27 15.6176L46.37 16.3643C46.1973 16.3903 46.0786 16.5516 46.1053 16.7236C46.1313 16.8963 46.2926 17.0149 46.4646 16.9883Z" fill="#A6B0A7"/>
<path d="M46.8748 17.949L51.2608 17.281C51.4335 17.2543 51.5521 17.0937 51.5255 16.921C51.4995 16.7483 51.3381 16.6297 51.1661 16.6563L46.7801 17.3243C46.6075 17.3503 46.4888 17.5117 46.5155 17.6843C46.5415 17.8563 46.7028 17.975 46.8748 17.949Z" fill="#A6B0A7"/>
<path d="M47.2581 18.913L51.1821 18.315C51.3548 18.289 51.4734 18.1277 51.4468 17.9557C51.4208 17.783 51.2594 17.6643 51.0874 17.691L47.1628 18.2883C46.9908 18.3143 46.8721 18.4757 46.8981 18.6483C46.9248 18.821 47.0854 18.939 47.2581 18.913Z" fill="#A6B0A7"/>
<path d="M53.8929 22.3375C53.5689 24.0069 51.9522 25.0982 50.2822 24.7735C48.6129 24.4495 47.5216 22.8329 47.8462 21.1629C48.1702 19.4929 49.7869 18.4022 51.4569 18.7269C53.1269 19.0509 54.2176 20.6675 53.8929 22.3375Z" fill="#4F5E6D"/>
<path d="M53.3819 22.2383C53.1126 23.6256 51.7693 24.5316 50.3819 24.2623C48.9953 23.993 48.0886 22.6496 48.3579 21.2623C48.6279 19.875 49.9706 18.969 51.3579 19.2383C52.7452 19.5076 53.6513 20.851 53.3819 22.2383Z" fill="#A6B0A7"/>
<path d="M51.4823 20.8555C51.413 21.2149 51.0643 21.4502 50.705 21.3802C50.3456 21.3102 50.1103 20.9622 50.1803 20.6022C50.2503 20.2429 50.5983 20.0075 50.9576 20.0775C51.3176 20.1475 51.5523 20.4955 51.4823 20.8555Z" fill="#4F5E6D"/>
<path d="M49.4902 22.5442C47.6775 22.5795 45.9515 22.2415 44.3095 21.5381C43.9242 21.4628 43.6728 21.0901 43.7475 20.7048L43.9008 19.9141C43.9762 19.5288 44.3488 19.2768 44.7342 19.3515L49.9142 20.3575C50.2995 20.4328 50.5515 20.8055 50.4768 21.1908L50.3228 21.9815C50.2482 22.3668 49.8755 22.6188 49.4902 22.5442Z" fill="#A6B0A7"/>
<path d="M45.3122 20.5981C45.2649 20.8421 45.0282 21.0015 44.7842 20.9541C44.5402 20.9068 44.3809 20.6708 44.4282 20.4268C44.4756 20.1828 44.7122 20.0235 44.9562 20.0708C45.2002 20.1182 45.3596 20.3541 45.3122 20.5981Z" fill="#4F5E6D"/>
<path d="M49.8474 21.479C49.8001 21.723 49.5634 21.883 49.3194 21.835C49.0754 21.7877 48.9161 21.5517 48.9634 21.3077C49.0107 21.0637 49.2474 20.9043 49.4914 20.9517C49.7354 20.999 49.8947 21.235 49.8474 21.479Z" fill="#4F5E6D"/>
<path d="M48.1264 21.7483L45.8711 21.3103L46.0424 20.4263L48.2984 20.8643L48.1264 21.7483Z" fill="#4F5E6D"/>
<path d="M57.085 27.4822C57.085 27.4822 57.135 27.4955 57.2317 27.5215C57.2797 27.5348 57.3397 27.5508 57.411 27.5702C57.4877 27.5922 57.603 27.6375 57.7177 27.6808C58.169 27.8655 58.781 28.1802 59.365 28.8262C59.9463 29.4535 60.4823 30.4082 60.5917 31.6268C60.7183 32.8255 60.225 34.3462 59.051 35.3082C57.8983 36.2802 56.371 36.7102 54.853 36.8315C54.4703 36.8575 54.0857 36.8788 53.6943 36.8695C53.327 36.8602 52.955 36.8508 52.579 36.8422C51.829 36.8182 51.0623 36.7935 50.283 36.7688C47.1823 36.6722 43.8797 36.5242 40.571 36.4842L39.331 36.4622L38.7117 36.4515C38.505 36.4535 38.3003 36.4182 38.0903 36.5008C37.8803 36.5762 37.6677 36.7142 37.4603 36.7535C37.253 36.7882 37.049 36.7542 36.8437 36.7548C36.4343 36.7402 36.0263 36.7262 35.6197 36.7115C33.993 36.6542 32.3923 36.5982 30.843 36.5435C29.2943 36.4842 27.7963 36.4455 26.377 36.3742C24.9583 36.3068 23.6163 36.2435 22.3777 36.1855C19.9003 36.0788 17.8383 35.9435 16.3937 35.8628C14.9503 35.7695 14.125 35.7162 14.125 35.7162L14.293 32.3868C14.293 32.3868 15.119 32.4168 16.5643 32.4688C18.0097 32.5335 20.0743 32.6055 22.5503 32.7468C23.7877 32.8122 25.129 32.8828 26.5477 32.9575C27.9663 33.0275 29.4603 33.1382 31.0077 33.2322C32.5543 33.3308 34.1523 33.4322 35.7763 33.5355C36.1823 33.5615 36.5897 33.5868 36.9983 33.6128C37.2023 33.6342 37.4083 33.6202 37.6117 33.6748C37.8143 33.7342 38.0123 33.8922 38.2137 33.9875C38.4143 34.0902 38.6217 34.0755 38.827 34.0975L39.4437 34.1475L40.6797 34.2468C43.9757 34.5275 47.277 34.6988 50.3683 34.8862C51.1377 34.9295 51.8937 34.9722 52.6337 35.0135C53.003 35.0315 53.3677 35.0495 53.729 35.0675C54.0663 35.0855 54.4023 35.0702 54.7277 35.0562C56.029 34.9908 57.209 34.6488 57.9823 34.0275C58.7623 33.4142 59.0697 32.5315 59.025 31.7362C58.9777 30.9355 58.6323 30.2548 58.247 29.8215C57.873 29.3728 57.4423 29.1448 57.1897 29.0295C57.1237 29.0035 57.0823 28.9782 57.0183 28.9562C56.947 28.9348 56.8877 28.9175 56.8397 28.9028C56.7437 28.8742 56.6943 28.8595 56.6943 28.8595L57.085 27.4822Z" fill="#4F5E6D"/>
<path d="M63.7206 8.90625C62.3046 8.90625 61.5293 7.53226 60.7773 6.20026C60.1246 5.04292 59.3833 3.73091 58.19 2.95091C56.6153 1.92091 54.2033 2.67892 50.5547 3.82292L49.8193 4.05359C49.3573 4.20026 48.8713 3.94092 48.7273 3.48092C48.584 3.02158 48.84 2.53226 49.2993 2.38959L50.0326 2.15959C54.0066 0.912254 56.8786 0.0102451 59.144 1.49158C60.6933 2.50424 61.582 4.07825 62.296 5.34292C62.8093 6.25225 63.3413 7.18891 63.758 7.16158C64.2266 7.12491 64.6553 7.48892 64.6893 7.96958C64.7233 8.44892 64.362 8.86625 63.882 8.90092C63.8273 8.90492 63.7733 8.90625 63.7206 8.90625Z" fill="#A6B0A7"/>
<path d="M49.5596 4.093C49.1883 4.093 48.8443 3.85501 48.7276 3.48168C48.5836 3.02234 48.8396 2.53301 49.2996 2.38968L50.0756 2.14434C51.3343 1.74567 52.6356 1.33367 53.9616 1.02967C54.4269 0.921671 54.8983 1.21567 55.0056 1.68433C55.113 2.15367 54.8203 2.62101 54.351 2.72834C53.095 3.01634 51.8269 3.41835 50.6023 3.80701L49.8203 4.05368C49.7336 4.08034 49.6456 4.093 49.5596 4.093Z" fill="black"/>
</g>
<defs>
<clipPath id="clip0_737_161">
<rect width="93.3333" height="40" fill="white" transform="translate(0.333984 0.7229)"/>
</clipPath>
</defs>
</svg>
