<svg width="79" height="41" viewBox="0 0 79 41" fill="none" xmlns="http://www.w3.org/2000/svg">
<g clip-path="url(#clip0_737_130)">
<path d="M13.1001 36.2171C8.64425 36.2171 5.03131 32.6047 5.03131 28.1482C5.03131 23.6923 8.64425 20.08 13.1001 20.08C17.556 20.08 21.1684 23.6923 21.1684 28.1482C21.1684 32.6047 17.556 36.2171 13.1001 36.2171ZM13.1001 15.7141C6.23308 15.7141 0.666016 21.2812 0.666016 28.1482C0.666016 35.0159 6.23308 40.5829 13.1001 40.5829C19.9672 40.5829 25.5343 35.0159 25.5343 28.1482C25.5343 21.2812 19.9672 15.7141 13.1001 15.7141Z" fill="#333334"/>
<path d="M13.0999 35.8547C8.84404 35.8547 5.39404 32.4041 5.39404 28.1483C5.39404 23.8924 8.84404 20.4424 13.0999 20.4424C17.3558 20.4424 20.8058 23.8924 20.8058 28.1483C20.8058 32.4041 17.3558 35.8547 13.0999 35.8547ZM13.0999 18.7671C7.91875 18.7671 3.71875 22.9671 3.71875 28.1483C3.71875 33.3294 7.91875 37.5294 13.0999 37.5294C18.2811 37.5294 22.4811 33.3294 22.4811 28.1483C22.4811 22.9671 18.2811 18.7671 13.0999 18.7671Z" fill="black"/>
<path d="M65.8365 36.2171C61.3806 36.2171 57.7682 32.6047 57.7682 28.1482C57.7682 23.6923 61.3806 20.08 65.8365 20.08C70.2929 20.08 73.9053 23.6923 73.9053 28.1482C73.9053 32.6047 70.2929 36.2171 65.8365 36.2171ZM65.8365 15.7141C58.9694 15.7141 53.4023 21.2812 53.4023 28.1482C53.4023 35.0159 58.9694 40.5829 65.8365 40.5829C72.7041 40.5829 78.2712 35.0159 78.2712 28.1482C78.2712 21.2812 72.7041 15.7141 65.8365 15.7141Z" fill="#333334"/>
<path d="M65.8363 35.8547C61.5804 35.8547 58.1304 32.4041 58.1304 28.1483C58.1304 23.8924 61.5804 20.4424 65.8363 20.4424C70.0915 20.4424 73.5427 23.8924 73.5427 28.1483C73.5427 32.4041 70.0915 35.8547 65.8363 35.8547ZM65.8363 18.7671C60.6551 18.7671 56.4551 22.9671 56.4551 28.1483C56.4551 33.3294 60.6551 37.5294 65.8363 37.5294C71.0174 37.5294 75.2174 33.3294 75.2174 28.1483C75.2174 22.9671 71.0174 18.7671 65.8363 18.7671Z" fill="black"/>
<path d="M60.8203 28.1483C60.8203 30.9189 63.0662 33.1654 65.8368 33.1654C68.6074 33.1654 70.8538 30.9189 70.8538 28.1483C70.8538 25.3777 68.6074 23.1318 65.8368 23.1318C63.0662 23.1318 60.8203 25.3777 60.8203 28.1483Z" fill="#333334"/>
<path d="M62.2988 28.1483C62.2988 30.1025 63.8829 31.6866 65.8371 31.6866C67.7912 31.6866 69.3747 30.1025 69.3747 28.1483C69.3747 26.1942 67.7912 24.6101 65.8371 24.6101C63.8829 24.6101 62.2988 26.1942 62.2988 28.1483Z" fill="black"/>
<path d="M8.64062 28.1482C8.64062 30.6118 10.6371 32.6082 13.1006 32.6082C15.5636 32.6082 17.5606 30.6118 17.5606 28.1482C17.5606 25.6853 15.5636 23.6882 13.1006 23.6882C10.6371 23.6882 8.64062 25.6853 8.64062 28.1482Z" fill="#333334"/>
<path d="M32.0767 23.9553L13.6685 26.3106C13.3296 26.3541 13.0132 26.5059 12.7673 26.7436L10.0655 29.3565C9.72492 29.6859 9.94492 30.2624 10.4179 30.2812L32.7096 30.583L32.0767 23.9553Z" fill="black"/>
<path d="M10.5508 29.4861L13.169 26.9543C13.3225 26.8061 13.5237 26.709 13.7361 26.6819L31.5384 24.4043L31.9814 27.6372L10.5508 29.4861Z" fill="#394F4F"/>
<path d="M57.5925 16.7047L63.9754 28.9853C64.4978 29.99 65.7501 30.36 66.7342 29.8C67.6666 29.2689 68.0131 28.0959 67.5178 27.1441L61.1354 14.863C60.6131 13.8583 59.3607 13.4889 58.3766 14.0489C57.4437 14.5794 57.0978 15.7524 57.5925 16.7047Z" fill="#394F4F"/>
<path d="M25.5842 8.28648L33.8536 8.68119L43.6724 3.68649C49.1136 2.46531 54.313 3.48178 57.8789 4.6306L65.1866 14.9612C65.3907 15.1977 65.4895 15.5071 65.4601 15.8183L64.9989 19.3106C64.9736 19.5771 64.856 19.8265 64.666 20.0153L52.6889 31.9135C51.913 32.7082 50.8295 33.1253 49.7213 33.0559L31.2936 31.9065C30.3836 31.8494 29.553 31.3694 29.0495 30.61L27.5401 28.3341L30.5119 21.3141L38.6724 18.1488L35.0772 13.7259L24.3577 12.4124L11.9236 8.58825L11.0254 6.07884H24.5689C24.5689 6.07884 25.3424 7.81707 25.5842 8.28648Z" fill="#00863B"/>
<path d="M30.4868 21.3731L52.8397 19.9519L53.085 16.7654L51.4021 14.1578L35.0774 11.079L11.9238 8.58838L24.3579 12.4125L35.0774 13.726L38.6726 18.149L30.5121 21.3143L30.4868 21.3731Z" fill="black"/>
<path d="M25.5841 8.28654L33.8535 8.68125L43.6723 3.68655C45.1635 3.48831 52.3217 5.37772 56.2523 6.5789C56.847 6.76066 57.2629 7.29184 57.3 7.91243L57.3188 8.22596C57.3564 8.85066 56.8865 9.39008 56.2623 9.43949L49.8012 9.94536L65.1864 14.9613C65.3906 15.1977 65.4894 15.5071 65.46 15.8183L64.9988 19.3107C64.9735 19.5771 64.8559 19.8266 64.6659 20.0154L52.6888 31.9136C51.9129 32.7083 50.8294 33.1254 49.7212 33.056L31.2935 31.9066C30.3835 31.8495 29.5529 31.3695 29.0494 30.6101L46.7606 30.2154L56.8859 20.2654L56.9435 16.373L54.3082 12.4124L39.9959 8.58831L35.077 10.1965L22.3488 9.11889L21.3047 6.0789H24.5688C24.5688 6.0789 25.3423 7.81713 25.5841 8.28654Z" fill="#4AD64C"/>
<path d="M43.7468 3.68359C43.725 3.68536 43.6933 3.6836 43.6733 3.68654L33.8544 8.68124L33.8203 8.68006V10.0901L35.078 10.1965L39.9968 8.5883L43.7468 3.68359Z" fill="#6DF483"/>
<path d="M49.7935 31.8824L32.1035 31.0788L47.5018 30.9277L57.7606 20.5977L57.8388 16.3729L54.9959 11.9612L63.5806 14.7371L63.827 19.1994L51.8582 31.0788C51.3523 31.5971 50.6647 31.8871 49.9576 31.8871C49.9035 31.8871 49.8482 31.8853 49.7935 31.8824Z" fill="#00A539"/>
<path d="M47.9359 30.4907L47.5018 30.9278L32.1035 31.079L49.7935 31.8825C49.8482 31.8854 49.9035 31.8872 49.9576 31.8872C50.6647 31.8872 51.3523 31.5972 51.8582 31.079L47.9359 30.4907Z" fill="#006337"/>
<path d="M65.186 14.9612L62.2978 13.0642L50.9513 10.3436L50.6572 9.90241L48.2207 9.65771V10.7859L54.3078 12.4124L56.9431 16.373L56.8854 20.2654L57.7607 20.5977L57.8389 16.373L55.2866 12.4124L63.0348 15.4418L63.8272 19.1995C63.8272 19.1995 64.9731 19.5771 64.9983 19.3107L65.4595 15.8183C65.4889 15.5071 65.3901 15.1977 65.186 14.9612Z" fill="#6DF483"/>
<path d="M63.8377 19.0935L64.153 15.8276L61.8718 13.9777L55.2871 12.4124L57.8395 16.3729L63.8377 19.0935Z" fill="#00863B"/>
<path d="M32.9102 27.4652L33.789 23.9364C34.8466 18.7441 52.8031 19.9541 52.8031 19.9541L48.9772 25.1823C46.6025 28.427 42.4943 29.9035 38.5972 28.9123L32.9102 27.4652Z" fill="#333334"/>
<path d="M50.036 22.7119L50.7101 21.7901L45.613 20.4937C43.986 20.5695 42.3718 20.7078 40.8954 20.9325L39.3342 27.069L38.8942 26.9566L39.1677 25.8813L38.923 25.819L40.1342 21.0589C39.836 21.1107 39.5407 21.1642 39.2589 21.2242L37.5312 28.016L38.7477 28.3254C41.8477 29.1142 45.0489 28.256 47.3207 26.1337L46.4965 25.9237L46.733 24.9948L48.3918 24.9484C48.4254 24.9078 48.4589 24.8672 48.4901 24.8248L48.8801 24.2919L47.0801 23.8337L49.2013 23.8531L49.6507 23.2384L47.3789 22.6607L50.036 22.7119Z" fill="#394F4F"/>
<path d="M35.2402 22.0454C34.4696 22.5554 33.9437 23.1754 33.789 23.9366L32.9102 27.4654L38.5972 28.9125C42.3707 29.8725 46.3378 28.5131 48.7413 25.4801L35.2402 22.0454Z" fill="black"/>
<path d="M48.2207 9.65777L64.6895 12.6595C65.9448 12.8184 67.0548 11.8401 67.0548 10.5748V9.67247C64.8572 6.2713 61.5766 3.62895 57.8531 1.13424C55.3436 0.41424 53.3778 0.687184 51.7536 1.58601C51.1448 1.63071 51.1719 2.36483 51.7984 2.776L58.8683 8.41306L58.3783 10.2954L48.2207 9.06954V9.65777Z" fill="#6DF483"/>
<path d="M66.9913 9.6084H64.4083C63.8395 9.6084 63.3789 10.0696 63.3789 10.6378C63.3789 11.2066 63.8395 11.6672 64.4083 11.6672H66.7366C66.9324 11.349 67.0554 10.9796 67.0554 10.5749V9.67252C67.0301 9.6484 67.016 9.63369 66.9913 9.6084Z" fill="#394F4F"/>
<path d="M51.7539 1.58591L63.2316 8.21121L66.1721 8.41296C65.9498 8.12238 65.7192 7.83708 65.481 7.55767L63.3704 7.28062L53.181 0.994141C52.6445 1.14943 52.1739 1.35062 51.7539 1.58591Z" fill="#394F4F"/>
<path d="M35.8862 25.247C35.7432 25.8094 36.0827 26.3812 36.645 26.5241C37.2074 26.6671 37.7791 26.327 37.9221 25.7647C38.065 25.2029 37.725 24.6312 37.1632 24.4882C36.6009 24.3453 36.0291 24.6847 35.8862 25.247Z" fill="#00753A"/>
<path d="M41.4739 23.3584C41.1439 24.6543 41.9274 25.9725 43.2233 26.3019C44.5198 26.6319 45.8374 25.8484 46.1674 24.5525C46.4968 23.2561 45.7133 21.9384 44.4174 21.6084C43.1215 21.279 41.8033 22.0625 41.4739 23.3584Z" fill="#B0B3A1"/>
<path d="M42.1192 23.5219C41.8798 24.4625 42.448 25.419 43.3886 25.6578C44.3286 25.8972 45.2851 25.329 45.5245 24.3884C45.7633 23.4484 45.1951 22.4919 44.2545 22.2525C43.3145 22.0137 42.358 22.5819 42.1192 23.5219Z" fill="#333334"/>
<path d="M52.2159 8.87418L55.9053 8.83241C56.3494 8.82712 56.7053 8.463 56.7 8.01888C56.6953 7.57477 56.3312 7.21889 55.8871 7.22418L52.1977 7.26594C51.7536 7.27124 51.3977 7.63535 51.4024 8.07947C51.4077 8.52359 51.7718 8.88007 52.2159 8.87418Z" fill="#333334"/>
</g>
<defs>
<clipPath id="clip0_737_130">
<rect width="77.6471" height="40" fill="white" transform="translate(0.666016 0.7229)"/>
</clipPath>
</defs>
</svg>
