<svg width="58" height="41" viewBox="0 0 58 41" fill="none" xmlns="http://www.w3.org/2000/svg">
<g clip-path="url(#clip0_737_34)">
<path d="M48.421 37.3691C45.4215 37.3691 42.9897 34.968 42.9897 32.0063C42.9897 29.0452 45.4215 26.6441 48.421 26.6441C51.4206 26.6441 53.8524 29.0452 53.8524 32.0063C53.8524 34.968 51.4206 37.3691 48.421 37.3691ZM48.421 23.5952C43.7161 23.5952 39.9023 27.3613 39.9023 32.0063C39.9023 36.6519 43.7161 40.4174 48.421 40.4174C53.126 40.4174 56.9397 36.6519 56.9397 32.0063C56.9397 27.3613 53.126 23.5952 48.421 23.5952Z" fill="#333334"/>
<path d="M48.4217 28.6123C46.5233 28.6123 44.9844 30.1317 44.9844 32.0062C44.9844 33.8806 46.5233 35.4006 48.4217 35.4006C50.3201 35.4006 51.859 33.8806 51.859 32.0062C51.859 30.1317 50.3201 28.6123 48.4217 28.6123Z" fill="#AE9F8B"/>
<path d="M11.2081 37.3691C8.20858 37.3691 5.77677 34.968 5.77677 32.0063C5.77677 29.0452 8.20858 26.6441 11.2081 26.6441C14.2077 26.6441 16.6389 29.0452 16.6389 32.0063C16.6389 34.968 14.2077 37.3691 11.2081 37.3691ZM11.2081 23.5952C6.50316 23.5952 2.68945 27.3613 2.68945 32.0063C2.68945 36.6519 6.50316 40.4174 11.2081 40.4174C15.9125 40.4174 19.7268 36.6519 19.7268 32.0063C19.7268 27.3613 15.9125 23.5952 11.2081 23.5952Z" fill="#333334"/>
<path d="M11.2088 28.6123C9.31036 28.6123 7.77148 30.1317 7.77148 32.0062C7.77148 33.8806 9.31036 35.4006 11.2088 35.4006C13.1072 35.4006 14.6461 33.8806 14.6461 32.0062C14.6461 30.1317 13.1072 28.6123 11.2088 28.6123Z" fill="#AE9F8B"/>
<path d="M48.7844 33.0241C49.3454 32.8491 49.656 32.2585 49.4787 31.7047L40.7406 4.42299C40.5634 3.8691 39.9653 3.56243 39.4043 3.73743C38.8433 3.91243 38.5327 4.50354 38.71 5.05687L47.4481 32.3385C47.6253 32.8924 48.224 33.1991 48.7844 33.0241Z" fill="#564F5A"/>
<path d="M52.8358 23.6812C48.3395 19.5917 43.5367 19.79 42.5149 24.6562C42.5098 24.6806 42.4851 24.695 42.4688 24.7145L45.8447 27.3367L52.8358 23.6812Z" fill="#EDB318"/>
<path d="M52.5915 23.474C48.5701 19.9635 44.3744 19.8751 42.8867 23.474H52.5915Z" fill="#F2DB5A"/>
<path d="M46.1899 13.6773L39.6039 3.08398H38.4347C37.6532 3.08398 37.2638 3.88177 37.5834 4.58621C45.2463 21.4923 32.9162 31.3057 32.9162 31.3057H28.2275C26.3803 31.3057 24.8831 29.8273 24.8831 28.004L23.5383 14.8151H11.6532C5.21754 14.8151 0 19.9668 0 26.3218C0 29.2323 2.05033 31.7512 4.92946 32.3762L22.4175 36.1751H31.2912C34.5974 36.1751 36.1003 33.8173 37.6616 31.5845L46.2799 20.4962C47.5127 18.5968 47.2527 16.0012 46.1899 13.6773Z" fill="#F2DB5A"/>
<path d="M39.9207 18.0491C38.8421 26.5819 32.9162 31.3057 32.9162 31.3057H28.2275C26.3803 31.3057 24.8831 29.8274 24.8831 28.0041L23.5383 14.8152L22.7331 16.0407C21.9111 17.293 20.5022 18.0491 18.9903 18.0491H7.34721C4.26721 18.0491 1.46179 19.9635 0.536214 22.8641C0.165983 24.0241 -0.0230699 25.263 0.00224977 26.5496C0.0573904 29.3746 2.13473 31.7696 4.92946 32.3763L22.4175 36.1752H31.2912C34.5974 36.1752 36.1003 33.8174 37.6616 31.5846L46.2799 20.4963C46.285 20.4891 46.2895 20.4819 46.294 20.4746C46.9686 19.423 46.1364 18.0491 44.8755 18.0491H39.9207Z" fill="#EDB318"/>
<path d="M17.3021 32.3445L5.50705 29.7822C3.89165 29.4311 2.70444 28.0345 2.68981 26.4017C2.64592 21.485 6.68357 17.4717 11.653 17.4717H16.8874C19.8177 17.4717 22.1927 19.8167 22.1927 22.71L22.4487 28.0578C22.5804 30.8111 20.0282 32.9367 17.3021 32.3445Z" fill="#F2DB5A"/>
<path d="M21.8842 20.96C21.1538 18.9289 19.1958 17.4717 16.8883 17.4717H11.6539C8.75395 17.4717 6.17809 18.8445 4.53906 20.96H21.8842Z" fill="#FFFF95"/>
<path d="M18.223 31.3856C17.9934 31.3856 17.761 31.36 17.532 31.3106L5.73698 28.7484C4.60266 28.5017 3.77161 27.5111 3.76205 26.3922C3.74292 24.3011 4.55596 22.3289 6.05095 20.84C7.5465 19.3506 9.5355 18.53 11.6528 18.53H16.8872C19.2217 18.53 21.1207 20.405 21.1207 22.71L21.3778 28.1078C21.4189 28.9706 21.1105 29.7884 20.5091 30.4111C19.9104 31.03 19.0777 31.3856 18.223 31.3856Z" fill="#EDB318"/>
<path d="M10.4609 14.815H24.3598C25.35 14.815 26.153 14.0223 26.153 13.0445C26.153 12.0667 25.35 11.2739 24.3598 11.2739H13.151C11.665 11.2739 10.4609 12.4628 10.4609 13.93V14.815Z" fill="#333334"/>
<path d="M16.6483 29.5106H16.6607C16.8419 29.5106 16.9888 29.3656 16.9888 29.1867V25.6156C16.9888 25.4368 16.8419 25.2917 16.6607 25.2917H16.6483C16.4672 25.2917 16.3203 25.4368 16.3203 25.6156V29.1867C16.3203 29.3656 16.4672 29.5106 16.6483 29.5106Z" fill="#C44C00"/>
<path d="M15.1601 29.5106H15.1724C15.3536 29.5106 15.5005 29.3656 15.5005 29.1867V25.6156C15.5005 25.4368 15.3536 25.2917 15.1724 25.2917H15.1601C14.9789 25.2917 14.832 25.4368 14.832 25.6156V29.1867C14.832 29.3656 14.9789 29.5106 15.1601 29.5106Z" fill="#C44C00"/>
<path d="M13.7382 29.5106H13.7506C13.9317 29.5106 14.0786 29.3656 14.0786 29.1867V25.6156C14.0786 25.4368 13.9317 25.2917 13.7506 25.2917H13.7382C13.557 25.2917 13.4102 25.4368 13.4102 25.6156V29.1867C13.4102 29.3656 13.557 29.5106 13.7382 29.5106Z" fill="#C44C00"/>
<path d="M43.676 0.737345C43.4852 0.729012 43.2928 0.7229 43.097 0.7229C39.5787 0.7229 36.7266 2.1529 36.7266 3.91623C36.7266 5.68012 39.5787 7.10957 43.097 7.10957C43.2928 7.10957 43.4852 7.10401 43.676 7.09512V0.737345Z" fill="#EDB318"/>
<path d="M43.0096 3.2279C43.3776 3.2279 43.6758 2.93345 43.6758 2.57012V0.737345C43.4851 0.729012 43.2927 0.7229 43.0969 0.7229C40.0506 0.7229 37.5074 1.79568 36.8789 3.2279H43.0096Z" fill="#F2DB5A"/>
<path d="M42.5215 0.737451V7.09523C42.7111 7.10412 42.9024 7.10967 43.0965 7.10967C43.2923 7.10967 43.4848 7.10412 43.6755 7.09523V0.737451C43.4848 0.729118 42.7111 0.729118 42.5215 0.737451Z" fill="#333334"/>
<path d="M42.4688 15.2874C42.4688 15.859 42.938 16.3218 43.5164 16.3218C44.0954 16.3218 44.5647 15.859 44.5647 15.2874C44.5647 14.7163 44.0954 14.2529 43.5164 14.2529C42.938 14.2529 42.4688 14.7163 42.4688 15.2874Z" fill="#ED9018"/>
<path d="M7.77148 20.9612C7.77148 21.5323 8.24018 21.9956 8.81916 21.9956C9.39757 21.9956 9.86683 21.5323 9.86683 20.9612C9.86683 20.3895 9.39757 19.9268 8.81916 19.9268C8.24018 19.9268 7.77148 20.3895 7.77148 20.9612Z" fill="#C44C00"/>
<path d="M39.5145 5.11733C39.2833 5.11733 39.0695 4.96788 39.0008 4.73732C38.9125 4.44232 38.881 4.14289 38.85 3.85344C38.7955 3.33344 38.7465 3.0051 38.5321 2.83621C38.2969 2.65066 37.8586 2.69177 37.431 2.74955L34.5581 3.14066C34.2655 3.17844 33.9948 2.97789 33.9543 2.68844C33.9138 2.399 34.1186 2.13177 34.4123 2.09177L37.2853 1.70066C37.772 1.63455 38.5867 1.52455 39.2011 2.00899C39.7824 2.46677 39.8538 3.1451 39.9168 3.74343C39.9433 3.99677 39.9686 4.23621 40.0288 4.43788C40.1132 4.71788 39.9506 5.01232 39.6665 5.0951C39.6158 5.1101 39.5646 5.11733 39.5145 5.11733Z" fill="#333334"/>
<path d="M35.2303 6.33561L38.9456 5.94339C39.5814 5.87617 40.0422 5.31227 39.9741 4.6845C39.906 4.05616 39.3355 3.60172 38.6991 3.66895L34.9839 4.06117C34.3481 4.12839 33.8878 4.69228 33.9559 5.32006C34.0234 5.94784 34.5945 6.40283 35.2303 6.33561Z" fill="#333334"/>
</g>
<defs>
<clipPath id="clip0_737_34">
<rect width="57.3913" height="40" fill="white" transform="translate(0 0.7229)"/>
</clipPath>
</defs>
</svg>
