<svg width="24" height="25" viewBox="0 0 24 25" fill="none" xmlns="http://www.w3.org/2000/svg">
<path fill-rule="evenodd" clip-rule="evenodd" d="M23.4146 22.7679C23.4146 23.4816 22.8361 24.0608 22.1224 24.0608H16.1557V14.993H19.1994L19.6554 11.4596H16.1557V9.203C16.1557 8.17996 16.4402 7.48283 17.9071 7.48283L19.7785 7.48219V4.32121C19.4545 4.27847 18.344 4.18216 17.0518 4.18216C14.3539 4.18216 12.5068 5.82899 12.5068 8.85348V11.4596H9.45553V14.993H12.5068V24.0608H1.2922C0.578493 24.0608 0 23.4816 0 22.7679V1.93835C0 1.224 0.578493 0.645508 1.2922 0.645508H22.1224C22.8361 0.645508 23.4146 1.224 23.4146 1.93835V22.7679Z" fill="#F5F5F6"/>
</svg>
