<svg width="24" height="24" viewBox="0 0 24 24" fill="none" xmlns="http://www.w3.org/2000/svg">
<path id="Instagram" fill-rule="evenodd" clip-rule="evenodd" d="M11.7073 0.060791C8.5278 0.060791 8.12912 0.074268 6.88041 0.131243C5.6343 0.188079 4.78325 0.386004 4.03858 0.675433C3.26872 0.974575 2.61583 1.37489 1.96494 2.02573C1.3141 2.67662 0.913784 3.32951 0.614642 4.09937C0.325213 4.84404 0.127288 5.69509 0.070452 6.9412C0.013477 8.18991 0 8.58859 0 11.7681C0 14.9476 0.013477 15.3463 0.070452 16.595C0.127288 17.8411 0.325213 18.6922 0.614642 19.4368C0.913784 20.2067 1.3141 20.8596 1.96494 21.5105C2.61583 22.1613 3.26872 22.5616 4.03858 22.8608C4.78325 23.1502 5.6343 23.3481 6.88041 23.405C8.12912 23.4619 8.5278 23.4754 11.7073 23.4754C14.8868 23.4754 15.2855 23.4619 16.5342 23.405C17.7803 23.3481 18.6314 23.1502 19.3761 22.8608C20.1459 22.5616 20.7988 22.1613 21.4497 21.5105C22.1005 20.8596 22.5009 20.2067 22.8 19.4368C23.0894 18.6922 23.2873 17.8411 23.3442 16.595C23.4012 15.3463 23.4146 14.9476 23.4146 11.7681C23.4146 8.58859 23.4012 8.18991 23.3442 6.9412C23.2873 5.69509 23.0894 4.84404 22.8 4.09937C22.5009 3.32951 22.1005 2.67662 21.4497 2.02573C20.7988 1.37489 20.1459 0.974575 19.3761 0.675433C18.6314 0.386004 17.7803 0.188079 16.5342 0.131243C15.2855 0.074268 14.8868 0.060791 11.7073 0.060791ZM11.7073 2.17019C14.8333 2.17019 15.2036 2.18213 16.4381 2.23845C17.5795 2.2905 18.1994 2.48122 18.612 2.64155C19.1584 2.85393 19.5484 3.10762 19.9581 3.51732C20.3678 3.92698 20.6215 4.31697 20.8338 4.86344C20.9942 5.27597 21.1849 5.89587 21.2369 7.03732C21.2933 8.27181 21.3052 8.6421 21.3052 11.7681C21.3052 14.8941 21.2933 15.2644 21.2369 16.4988C21.1849 17.6403 20.9942 18.2602 20.8338 18.6727C20.6215 19.2192 20.3678 19.6092 19.9581 20.0188C19.5484 20.4285 19.1584 20.6822 18.612 20.8946C18.1994 21.0549 17.5795 21.2457 16.4381 21.2977C15.2038 21.354 14.8335 21.366 11.7073 21.366C8.5811 21.366 8.21091 21.354 6.97656 21.2977C5.8351 21.2457 5.21521 21.0549 4.80268 20.8946C4.25621 20.6822 3.86621 20.4285 3.45656 20.0188C3.04691 19.6092 2.79317 19.2192 2.58079 18.6727C2.42046 18.2602 2.22974 17.6403 2.17769 16.4988C2.12137 15.2644 2.10942 14.8941 2.10942 11.7681C2.10942 8.6421 2.12137 8.27181 2.17769 7.03732C2.22974 5.89587 2.42046 5.27597 2.58079 4.86344C2.79317 4.31697 3.04686 3.92698 3.45656 3.51732C3.86621 3.10762 4.25621 2.85393 4.80268 2.64155C5.21521 2.48122 5.8351 2.2905 6.97656 2.23845C8.21105 2.18213 8.58134 2.17019 11.7073 2.17019ZM5.69546 11.7682C5.69546 8.44794 8.38704 5.75636 11.7073 5.75636C15.0276 5.75636 17.7192 8.44794 17.7192 11.7682C17.7192 15.0885 15.0276 17.7801 11.7073 17.7801C8.38704 17.7801 5.69546 15.0885 5.69546 11.7682ZM11.7073 15.6706C9.55205 15.6706 7.80488 13.9234 7.80488 11.7682C7.80488 9.6129 9.55205 7.86573 11.7073 7.86573C13.8626 7.86573 15.6098 9.6129 15.6098 11.7682C15.6098 13.9234 13.8626 15.6706 11.7073 15.6706ZM17.9567 6.92362C18.7326 6.92362 19.3616 6.29466 19.3616 5.51876C19.3616 4.74286 18.7326 4.11386 17.9567 4.11386C17.1808 4.11386 16.5518 4.74286 16.5518 5.51876C16.5518 6.29466 17.1808 6.92362 17.9567 6.92362Z" fill="#F5F5F6"/>
</svg>
