<svg width="20" height="21" viewBox="0 0 20 21" fill="none" xmlns="http://www.w3.org/2000/svg">
<path d="M4.99996 17.3122H15C15.4583 17.3122 15.8333 17.6872 15.8333 18.1455C15.8333 18.6039 15.4583 18.9789 15 18.9789H4.99996C4.54163 18.9789 4.16663 18.6039 4.16663 18.1455C4.16663 17.6872 4.54163 17.3122 4.99996 17.3122ZM9.99996 6.47886C9.08329 6.47886 8.33329 7.22886 8.33329 8.14553C8.33329 9.06219 9.08329 9.81219 9.99996 9.81219C10.9166 9.81219 11.6666 9.06219 11.6666 8.14553C11.6666 7.22886 10.9166 6.47886 9.99996 6.47886ZM9.99996 2.31219C12.725 2.31219 15.8333 4.36219 15.8333 8.27053C15.8333 10.7539 14.0583 13.3705 10.5083 16.0955C10.2083 16.3289 9.79163 16.3289 9.49163 16.0955C5.94163 13.3622 4.16663 10.7539 4.16663 8.27053C4.16663 4.36219 7.27496 2.31219 9.99996 2.31219Z" fill="white"/>
</svg>
