<svg width="20" height="20" viewBox="0 0 20 20" fill="none" xmlns="http://www.w3.org/2000/svg">
<path d="M5.00002 16.6666H15C15.4584 16.6666 15.8334 17.0416 15.8334 17.5C15.8334 17.9583 15.4584 18.3333 15 18.3333H5.00002C4.54169 18.3333 4.16669 17.9583 4.16669 17.5C4.16669 17.0416 4.54169 16.6666 5.00002 16.6666ZM10 5.83329C9.08335 5.83329 8.33335 6.58329 8.33335 7.49996C8.33335 8.41663 9.08335 9.16663 10 9.16663C10.9167 9.16663 11.6667 8.41663 11.6667 7.49996C11.6667 6.58329 10.9167 5.83329 10 5.83329ZM10 1.66663C12.725 1.66663 15.8334 3.71663 15.8334 7.62496C15.8334 10.1083 14.0584 12.725 10.5084 15.45C10.2084 15.6833 9.79169 15.6833 9.49169 15.45C5.94169 12.7166 4.16669 10.1083 4.16669 7.62496C4.16669 3.71663 7.27502 1.66663 10 1.66663Z" fill="#333333" fill-opacity="0.7"/>
</svg>
