<svg width="20" height="20" viewBox="0 0 20 20" fill="none" xmlns="http://www.w3.org/2000/svg">
<g clip-path="url(#clip0_71_518)">
<path d="M8.45551 11.4666C9.61523 12.6431 11.0184 13.5514 12.5666 14.1278L14.6611 12.4611C14.7232 12.4183 14.7968 12.3954 14.8722 12.3954C14.9476 12.3954 15.0212 12.4183 15.0833 12.4611L18.9722 14.9666C19.1198 15.0554 19.2448 15.1773 19.3372 15.3226C19.4297 15.468 19.4871 15.6329 19.5048 15.8042C19.5226 15.9756 19.5003 16.1487 19.4397 16.3099C19.3791 16.4712 19.2818 16.6161 19.1555 16.7333L17.3333 18.5333C17.0723 18.7912 16.7516 18.9804 16.3997 19.0841C16.0478 19.1878 15.6757 19.2028 15.3166 19.1278C11.7345 18.3879 8.43281 16.6553 5.78885 14.1278C3.20356 11.5751 1.41455 8.32712 0.638845 4.77776C0.562215 4.42422 0.578209 4.05689 0.685276 3.71135C0.792344 3.36582 0.986854 3.0538 1.24996 2.80553L3.13885 0.983311C3.25573 0.863192 3.39828 0.771074 3.55582 0.713854C3.71335 0.656633 3.88179 0.635793 4.04852 0.652893C4.21525 0.669994 4.37595 0.724592 4.51859 0.8126C4.66123 0.900607 4.78211 1.01974 4.87218 1.16109L7.46107 4.99998C7.50572 5.06026 7.52983 5.13329 7.52983 5.20831C7.52983 5.28333 7.50572 5.35636 7.46107 5.41664L5.75551 7.46664C6.3475 8.98383 7.26981 10.3502 8.45551 11.4666Z" fill="#333333" fill-opacity="0.7"/>
</g>
<defs>
<clipPath id="clip0_71_518">
<rect width="20" height="20" fill="white"/>
</clipPath>
</defs>
</svg>
