<svg width="194" height="40" viewBox="0 0 194 40" fill="none" xmlns="http://www.w3.org/2000/svg">
<g clip-path="url(#clip0_1660_267)">
<path d="M51.0039 23.3315V18.6912H83.6309V23.3315H51.0039Z" fill="black"/>
<path d="M99.1942 32.6122C93.0313 32.6122 88.2461 27.8631 88.2461 19.9239C88.2461 12.0209 93.2127 7.2356 99.8468 7.2356C105.574 7.2356 109.453 10.7158 110.36 15.7186H105.212C104.705 13.0722 102.638 11.5134 99.8106 11.5134C95.8953 11.5134 93.3939 14.486 93.3939 19.3076V20.5402C93.3939 25.3254 95.8228 28.3707 99.8468 28.3707C103.146 28.3707 105.611 26.3043 105.72 22.8603H99.9918V18.7275H110.505V32.2497H106.807L106.662 28.4432C105.321 31.0896 102.674 32.6122 99.1942 32.6122Z" fill="black"/>
<path d="M113.895 32.2495V14.1234H118.644L118.716 18.0749C120.058 15.0297 121.689 13.9421 124.155 13.9421H125.096V18.7274H122.487C120.022 18.7274 118.862 19.67 118.862 22.5339V32.2495H113.895Z" fill="black"/>
<path d="M135.758 32.612C130.502 32.612 126.695 29.2768 126.695 23.1864C126.695 17.0959 130.502 13.7607 135.758 13.7607C140.979 13.7607 144.785 17.0959 144.785 23.1864C144.785 29.2768 140.979 32.612 135.758 32.612ZM131.843 23.6213C131.843 26.9928 133.329 28.8417 135.758 28.8417C138.187 28.8417 139.673 26.9928 139.673 23.6213V22.7514C139.673 19.3799 138.187 17.531 135.758 17.531C133.329 17.531 131.843 19.3799 131.843 22.7514V23.6213Z" fill="black"/>
<path d="M153.501 32.6122C150.274 32.6122 147.664 30.582 147.664 26.0143V14.1235H152.631V25.3255C152.631 27.5732 153.646 28.7332 155.64 28.7332C157.779 28.7332 159.047 27.4644 159.047 24.4917V14.1235H164.014V32.2497H159.301L159.229 28.697C158.141 30.8359 156.51 32.6122 153.501 32.6122Z" fill="black"/>
<path d="M167.668 39.4999V14.1233H172.417L172.49 17.4585C173.686 15.1747 175.607 13.7607 178.217 13.7607C182.096 13.7607 185.468 16.806 185.468 23.1864C185.468 29.5668 182.096 32.612 178.217 32.612C175.716 32.612 173.831 31.3068 172.634 29.168V39.4999H167.668ZM172.634 24.2014C172.634 26.9928 174.012 28.8417 176.441 28.8417C178.906 28.8417 180.32 26.9566 180.32 23.6213V22.7514C180.32 19.2711 178.906 17.3135 176.441 17.3135C174.012 17.3135 172.634 19.2348 172.634 22.2075V24.2014Z" fill="black"/>
<path d="M43.4209 30.2367C36.3379 22.4604 30.9473 13.2942 27.5876 3.33906C27.3619 2.67539 26.7351 2.22459 26.0331 2.22459C23.3001 1.79884 20.5798 1.79884 17.8469 2.22459C17.1448 2.22459 16.518 2.67539 16.2924 3.33906C12.9201 13.2942 7.52949 22.4604 0.433952 30.2367C0.032791 30.6749 -0.105108 31.301 0.0829362 31.852C0.935404 34.4065 2.22664 36.7607 3.86889 38.8269C4.25752 39.3152 4.89687 39.5532 5.51115 39.4154C16.3174 37.0237 27.5374 37.0237 38.3437 39.4154C38.958 39.5532 39.5973 39.3152 39.9859 38.8269C41.6282 36.7607 42.9194 34.4065 43.7719 31.852C43.9599 31.301 43.822 30.6749 43.4209 30.2367ZM37.9801 33.9307L31.3484 30.0238C25.5316 26.5927 18.3107 26.5927 12.5064 30.0238L5.8747 33.9307L5.13506 32.6785L12.1052 28.5712C17.7466 25.2403 21.2066 19.1796 21.2066 12.643V5.95619H22.6733V12.643C22.6733 19.1921 26.1333 25.2403 31.7747 28.5712L38.7323 32.6785L37.9801 33.9307Z" fill="#191919"/>
</g>
<defs>
<clipPath id="clip0_1660_267">
<rect width="193.99" height="39" fill="white" transform="translate(0 0.5)"/>
</clipPath>
</defs>
</svg>
